<svg xmlns="http://www.w3.org/2000/svg" width="245.344" height="48.205" viewBox="0 0 245.344 48.205"><defs><style>.a,.c{fill:#77787b;}.b{fill:#be1e2d;}.c{fill-rule:evenodd;}.d{fill:#556066;}.e{fill:#fff;}</style></defs><g transform="translate(-293.768 -275.581)"><path class="a" d="M539.112,279.565a4.094,4.094,0,1,1-4.081-3.984A4,4,0,0,1,539.112,279.565Zm-7.165,0a3.086,3.086,0,0,0,3.109,3.182,3.05,3.05,0,0,0,3.036-3.158,3.075,3.075,0,1,0-6.145-.024Zm2.453,2.089h-.923V277.67a8.054,8.054,0,0,1,1.53-.121,2.486,2.486,0,0,1,1.385.291,1.107,1.107,0,0,1,.388.875,1.021,1.021,0,0,1-.826.923v.048a1.176,1.176,0,0,1,.729.972,3.064,3.064,0,0,0,.292,1h-1a3.409,3.409,0,0,1-.316-.972c-.073-.437-.316-.631-.826-.631H534.4Zm.024-2.259h.437c.511,0,.924-.17.924-.583,0-.364-.268-.607-.851-.607a2.241,2.241,0,0,0-.51.048Z"/><path class="a" d="M304.41,297.778l4.037-5.562h9l-5.591-7.774-9.718,13.336h-8.282l13.814-19.166a5.951,5.951,0,0,1,1.823-1.675,4.8,4.8,0,0,1,2.482-.777,4.7,4.7,0,0,1,2.482.777,6.051,6.051,0,0,1,1.794,1.675l13.485,19.166Z"/><path class="a" d="M356.574,287.971q0,9.807-13.455,9.807h-1.4q-13.456,0-13.455-9.807V276.22h6.7v11.751a3.559,3.559,0,0,0,2.566,3.767,20.745,20.745,0,0,0,5.611.478,11.574,11.574,0,0,0,4.8-.717,3.536,3.536,0,0,0,1.939-3.528V276.22h6.7Z"/><path class="a" d="M384.082,276.22l-4.336,5.561h-6.458v16h-6.7v-16h-8.88l4.305-5.561Z"/><path class="b" d="M420.59,297.778l4.036-5.562h9l-5.591-7.774-9.717,13.336h-8.283l13.814-19.166a5.955,5.955,0,0,1,1.824-1.675,4.8,4.8,0,0,1,2.482-.777,4.7,4.7,0,0,1,2.482.777,6.051,6.051,0,0,1,1.794,1.675l13.484,19.166Z"/><path class="b" d="M472.754,287.971q0,9.807-13.455,9.807h-1.406q-13.453,0-13.455-9.807V276.22h6.7v11.751a3.559,3.559,0,0,0,2.566,3.767,20.741,20.741,0,0,0,5.61.478,11.574,11.574,0,0,0,4.8-.717,3.537,3.537,0,0,0,1.941-3.528V276.22h6.7Z"/><path class="b" d="M500.262,276.22l-4.335,5.561h-6.459v16h-6.7v-16h-8.88l4.3-5.561Z"/><path class="b" d="M528.158,297.778h-6.7V289.7h-12.8v8.074h-6.7V276.22h6.7v7.923h12.8V276.22h6.7Z"/><path class="a" d="M409.721,279.15a14.477,14.477,0,0,0-9.358-2.93h-6.489a14.537,14.537,0,0,0-9.373,2.93,9.336,9.336,0,0,0-3.663,7.655,9.854,9.854,0,0,0,3.693,7.848,13.962,13.962,0,0,0,9.343,3.125h6.489a13.922,13.922,0,0,0,9.314-3.125,9.856,9.856,0,0,0,3.692-7.848A9.353,9.353,0,0,0,409.721,279.15Zm-8.552,14.891h-8.131L388.972,287l4.066-7.042h8.131L405.235,287Z"/><path class="c" d="M399.846,284.5a2.743,2.743,0,1,0-4.205,2.317l-.587,5.424h4.1l-.587-5.424A2.739,2.739,0,0,0,399.846,284.5Z"/><rect class="d" width="234.302" height="21.558" transform="translate(293.768 302.228)"/><path class="e" d="M375.932,315.035a.9.9,0,0,0-.352-.765,4.612,4.612,0,0,0-1.266-.563,8.92,8.92,0,0,1-1.447-.583,2.363,2.363,0,0,1-1.453-2.115,2.057,2.057,0,0,1,.39-1.233,2.534,2.534,0,0,1,1.119-.847,4.214,4.214,0,0,1,1.638-.3,3.84,3.84,0,0,1,1.628.331,2.6,2.6,0,0,1,1.111.935,2.449,2.449,0,0,1,.4,1.371h-1.757a1.151,1.151,0,0,0-.37-.911,1.515,1.515,0,0,0-1.037-.325,1.628,1.628,0,0,0-1,.272.86.86,0,0,0-.357.718.823.823,0,0,0,.419.7,4.7,4.7,0,0,0,1.233.528,5.314,5.314,0,0,1,2.186,1.119,2.228,2.228,0,0,1,.685,1.664,2.052,2.052,0,0,1-.838,1.737,3.664,3.664,0,0,1-2.255.63,4.357,4.357,0,0,1-1.793-.36,2.845,2.845,0,0,1-1.234-.988,2.529,2.529,0,0,1-.425-1.453h1.764q0,1.413,1.688,1.412a1.639,1.639,0,0,0,.978-.255A.83.83,0,0,0,375.932,315.035Z"/><path class="e" d="M387.947,310.165h-2.613v7.108h-1.758v-7.108H381v-1.423h6.949Z"/><path class="e" d="M395.7,315.515H392.62l-.586,1.758h-1.869l3.176-8.531h1.629l3.193,8.531h-1.869Zm-2.607-1.424h2.133l-1.073-3.193Z"/><path class="e" d="M408.537,317.273h-1.758l-3.422-5.613v5.613H401.6v-8.531h1.757l3.428,5.625v-5.625h1.752Z"/><path class="e" d="M412.713,317.273v-8.531h2.625a3.987,3.987,0,0,1,2.013.506,3.54,3.54,0,0,1,1.385,1.442,4.446,4.446,0,0,1,.5,2.124v.392a4.465,4.465,0,0,1-.489,2.116,3.5,3.5,0,0,1-1.38,1.435,4.015,4.015,0,0,1-2.01.516Zm1.758-7.108v5.7h.849a1.908,1.908,0,0,0,1.576-.674,3.042,3.042,0,0,0,.557-1.928v-.451a3.1,3.1,0,0,0-.539-1.972,1.9,1.9,0,0,0-1.576-.671Z"/><path class="e" d="M427.968,315.515h-3.082l-.586,1.758h-1.869l3.175-8.531h1.629l3.194,8.531H428.56Zm-2.608-1.424h2.133l-1.072-3.193Z"/><path class="e" d="M437.023,314.15h-1.4v3.123h-1.758v-8.531h3.17a3.584,3.584,0,0,1,2.332.673,2.327,2.327,0,0,1,.821,1.9,2.625,2.625,0,0,1-.377,1.456,2.581,2.581,0,0,1-1.147.928l1.846,3.487v.082h-1.887Zm-1.4-1.424h1.418a1.449,1.449,0,0,0,1.025-.337,1.2,1.2,0,0,0,.364-.929,1.292,1.292,0,0,0-.342-.949,1.43,1.43,0,0,0-1.053-.346h-1.412Z"/><path class="e" d="M444.164,317.273v-8.531h2.625a3.987,3.987,0,0,1,2.013.506,3.542,3.542,0,0,1,1.386,1.442,4.446,4.446,0,0,1,.5,2.124v.392a4.466,4.466,0,0,1-.49,2.116,3.5,3.5,0,0,1-1.38,1.435,4.011,4.011,0,0,1-2.009.516Zm1.758-7.108v5.7h.849a1.912,1.912,0,0,0,1.577-.674,3.048,3.048,0,0,0,.556-1.928v-.451a3.092,3.092,0,0,0-.539-1.972,1.9,1.9,0,0,0-1.576-.671Z"/></g></svg>